<svg width="209" height="234" viewBox="0 0 209 234" fill="none" xmlns="http://www.w3.org/2000/svg">
<g filter="url(#filter0_n_15_54)">
<path d="M101.435 0.935181C122.506 0.935181 141.242 15.781 153.173 38.819C158.339 36.2253 163.928 34.943 169.7 35.2643C192.805 36.5508 210.086 63.0415 208.297 94.4323C206.562 124.863 187.544 148.727 165.333 148.986C165.56 151.599 165.678 154.251 165.678 156.935C165.678 199.461 136.462 233.935 100.424 233.935C64.3855 233.935 35.1708 199.461 35.1708 156.935C35.1708 147.08 36.7401 137.657 39.5995 128.996C37.3836 119.244 36.1825 108.798 36.1825 97.9352C36.1825 44.3637 65.3972 0.935424 101.435 0.935181Z" fill="#161910"/>
</g>
<path d="M13.8672 64.9352L13.6806 61.4271V55.3439C13.6806 54.0751 13.5438 53.0177 13.2701 52.1717C13.0213 51.3009 12.5983 50.6416 12.0012 50.1938C11.429 49.7211 10.6577 49.4847 9.68738 49.4847C8.7917 49.4847 8.00798 49.6713 7.33622 50.0445C6.66446 50.4177 6.09222 51.0024 5.6195 51.7985L1.96214 50.455C2.36022 49.634 2.8827 48.8751 3.52958 48.1785C4.20134 47.457 5.03482 46.8847 6.03002 46.4618C7.0501 46.0388 8.26922 45.8273 9.68738 45.8273C11.5036 45.8273 13.0213 46.1881 14.2404 46.9096C15.4595 47.6063 16.3552 48.6139 16.9275 49.9325C17.5246 51.2512 17.8231 52.8435 17.8231 54.7095L17.7112 64.9352H13.8672ZM8.49314 65.383C6.25394 65.383 4.51234 64.8854 3.26834 63.8902C2.04922 62.895 1.43966 61.4893 1.43966 59.6731C1.43966 57.7324 2.08654 56.2521 3.3803 55.232C4.69894 54.2119 6.52762 53.7019 8.86634 53.7019H13.8672V56.9114H10.2099C8.5429 56.9114 7.37354 57.1477 6.70178 57.6205C6.03002 58.0683 5.69414 58.7152 5.69414 59.5611C5.69414 60.2826 5.98026 60.8549 6.5525 61.2778C7.14962 61.6759 7.97066 61.8749 9.01562 61.8749C9.96106 61.8749 10.7821 61.6635 11.4787 61.2405C12.1754 60.8175 12.7103 60.2577 13.0835 59.5611C13.4816 58.8645 13.6806 58.0807 13.6806 57.2099H14.9122C14.9122 59.7477 14.4021 61.7505 13.3821 63.2185C12.362 64.6615 10.7323 65.383 8.49314 65.383ZM34.7819 64.9352L34.5953 61.4644V38.8112H38.7378V64.9352H34.7819ZM28.6987 65.383C27.0069 65.383 25.5265 64.9849 24.2576 64.1888C23.0136 63.3677 22.0309 62.2233 21.3093 60.7553C20.6127 59.2874 20.2644 57.5707 20.2644 55.6052C20.2644 53.6148 20.6127 51.8981 21.3093 50.455C22.0309 48.9871 23.0136 47.8551 24.2576 47.0589C25.5265 46.2379 27.0069 45.8273 28.6987 45.8273C30.2661 45.8273 31.6097 46.2379 32.7293 47.0589C33.8737 47.8551 34.7445 48.9871 35.3417 50.455C35.9388 51.8981 36.2373 53.6148 36.2373 55.6052C36.2373 57.5707 35.9388 59.2874 35.3417 60.7553C34.7445 62.2233 33.8737 63.3677 32.7293 64.1888C31.6097 64.9849 30.2661 65.383 28.6987 65.383ZM29.7437 61.5764C30.6891 61.5764 31.5226 61.3276 32.2441 60.83C32.9905 60.3075 33.5627 59.5984 33.9608 58.7027C34.3838 57.8071 34.5953 56.7745 34.5953 55.6052C34.5953 54.4358 34.3838 53.4033 33.9608 52.5076C33.5627 51.6119 32.9905 50.9153 32.2441 50.4177C31.5226 49.9201 30.6767 49.6713 29.7063 49.6713C28.7111 49.6713 27.8279 49.9201 27.0566 50.4177C26.2853 50.9153 25.6758 51.6119 25.2279 52.5076C24.805 53.4033 24.5811 54.4358 24.5562 55.6052C24.5811 56.7745 24.805 57.8071 25.2279 58.7027C25.6758 59.5984 26.2853 60.3075 27.0566 60.83C27.8528 61.3276 28.7485 61.5764 29.7437 61.5764Z" fill="#161910"/>
<path d="M51.196 65.383C49.33 65.383 47.663 64.9725 46.1951 64.1515C44.752 63.3055 43.62 62.1486 42.799 60.6807C41.9779 59.2128 41.5674 57.5209 41.5674 55.6052C41.5674 53.6894 41.9655 51.9976 42.7616 50.5297C43.5827 49.0617 44.7147 47.9173 46.1578 47.0962C47.6008 46.2503 49.2553 45.8273 51.1213 45.8273C52.9873 45.8273 54.6418 46.2503 56.0849 47.0962C57.5279 47.9173 58.6475 49.0617 59.4437 50.5297C60.2647 51.9976 60.6752 53.6894 60.6752 55.6052C60.6752 57.5209 60.2772 59.2128 59.481 60.6807C58.6848 62.1486 57.5652 63.3055 56.1222 64.1515C54.6792 64.9725 53.0371 65.383 51.196 65.383ZM51.196 61.5391C52.216 61.5391 53.1242 61.2903 53.9203 60.7927C54.7165 60.2702 55.3385 59.5735 55.7863 58.7027C56.2342 57.8071 56.4581 56.7745 56.4581 55.6052C56.4581 54.4358 56.2217 53.4157 55.749 52.5449C55.3012 51.6493 54.6792 50.9526 53.883 50.455C53.0868 49.9325 52.1663 49.6713 51.1213 49.6713C50.0764 49.6713 49.1558 49.9201 48.3596 50.4177C47.5635 50.9153 46.9415 51.6119 46.4936 52.5076C46.0458 53.4033 45.8219 54.4358 45.8219 55.6052C45.8219 56.7745 46.0458 57.8071 46.4936 58.7027C46.9664 59.5735 47.6008 60.2702 48.397 60.7927C49.218 61.2903 50.151 61.5391 51.196 61.5391ZM63.5509 64.9352V38.8112H67.7308V61.4644L67.5068 64.9352H63.5509ZM73.6273 65.383C72.0599 65.383 70.7039 64.9849 69.5594 64.1888C68.4398 63.3677 67.5815 62.2233 66.9844 60.7553C66.3872 59.2874 66.0887 57.5707 66.0887 55.6052C66.0887 53.6148 66.3872 51.8981 66.9844 50.455C67.5815 48.9871 68.4398 47.8551 69.5594 47.0589C70.7039 46.2379 72.0599 45.8273 73.6273 45.8273C75.3192 45.8273 76.7871 46.2379 78.0311 47.0589C79.3 47.8551 80.2827 48.9871 80.9794 50.455C81.7009 51.8981 82.0616 53.6148 82.0616 55.6052C82.0616 57.5707 81.7009 59.2874 80.9794 60.7553C80.2827 62.2233 79.3 63.3677 78.0311 64.1888C76.7871 64.9849 75.3192 65.383 73.6273 65.383ZM72.5824 61.5764C73.5776 61.5764 74.4608 61.3276 75.2321 60.83C76.0034 60.3075 76.6129 59.5984 77.0608 58.7027C77.5335 57.8071 77.7698 56.7745 77.7698 55.6052C77.7698 54.4358 77.5459 53.4033 77.0981 52.5076C76.6751 51.6119 76.078 50.9153 75.3067 50.4177C74.5354 49.9201 73.6398 49.6713 72.6197 49.6713C71.6742 49.6713 70.8283 49.9201 70.0819 50.4177C69.3355 50.9153 68.7508 51.6119 68.3279 52.5076C67.9298 53.4033 67.7308 54.4358 67.7308 55.6052C67.7308 56.7745 67.9298 57.8071 68.3279 58.7027C68.7508 59.5984 69.3231 60.3075 70.0446 60.83C70.791 61.3276 71.6369 61.5764 72.5824 61.5764ZM93.2127 65.383C91.3965 65.383 89.7793 64.9725 88.3611 64.1515C86.9679 63.3055 85.8607 62.1486 85.0397 60.6807C84.2435 59.2128 83.8454 57.5209 83.8454 55.6052C83.8454 53.6894 84.2559 51.9976 85.077 50.5297C85.898 49.0617 87.0176 47.9173 88.4358 47.0962C89.8788 46.2503 91.5209 45.8273 93.362 45.8273C95.029 45.8273 96.5342 46.2627 97.8777 47.1335C99.2213 47.9795 100.279 49.211 101.05 50.8282C101.846 52.4454 102.244 54.3736 102.244 56.6128H87.5774L88.1372 56.0903C88.1372 57.2348 88.386 58.23 88.8836 59.0759C89.3812 59.897 90.0405 60.5314 90.8616 60.9793C91.6826 61.4271 92.5907 61.651 93.5859 61.651C94.7304 61.651 95.6759 61.4022 96.4223 60.9046C97.1687 60.3821 97.7533 59.7104 98.1763 58.8893L101.871 60.4568C101.349 61.452 100.677 62.3228 99.8557 63.0692C99.0595 63.8156 98.1017 64.3878 96.9821 64.7859C95.8873 65.184 94.6309 65.383 93.2127 65.383ZM88.3985 53.9258L87.8013 53.4033H98.3256L97.7658 53.9258C97.7658 52.9057 97.5419 52.0722 97.094 51.4253C96.6462 50.7536 96.0739 50.256 95.3773 49.9325C94.7055 49.5842 93.9965 49.4101 93.2501 49.4101C92.5037 49.4101 91.7573 49.5842 91.0109 49.9325C90.2645 50.256 89.6425 50.7536 89.1449 51.4253C88.6473 52.0722 88.3985 52.9057 88.3985 53.9258Z" fill="#F8DC3D"/>
<path d="M9.27686 95.3829C8.03286 95.3829 6.88838 95.1963 5.84342 94.8231C4.79846 94.4499 3.90278 93.9274 3.15638 93.2557C2.40998 92.559 1.83774 91.7504 1.43966 90.8299L5.0597 89.2251C5.4329 89.9217 5.98026 90.5064 6.70178 90.9791C7.44818 91.4519 8.26922 91.6882 9.1649 91.6882C10.1352 91.6882 10.9065 91.5265 11.4787 91.2031C12.0759 90.8547 12.3744 90.382 12.3744 89.7849C12.3744 89.2127 12.1505 88.7773 11.7027 88.4787C11.2548 88.1553 10.6204 87.894 9.79934 87.695L8.0453 87.2098C6.27882 86.762 4.89798 86.0529 3.90278 85.0826C2.90758 84.0874 2.40998 82.9553 2.40998 81.6865C2.40998 79.8205 3.0071 78.3774 4.20134 77.3573C5.42046 76.3373 7.16206 75.8272 9.42614 75.8272C10.5706 75.8272 11.6156 76.0014 12.561 76.3497C13.5313 76.6731 14.3648 77.1459 15.0615 77.7679C15.7581 78.365 16.2433 79.0741 16.5169 79.8951L13.0462 81.4625C12.7974 80.8405 12.3247 80.3678 11.628 80.0444C10.9314 79.6961 10.1601 79.5219 9.31418 79.5219C8.46826 79.5219 7.80894 79.7085 7.33622 80.0817C6.8635 80.43 6.62714 80.9276 6.62714 81.5745C6.62714 81.9477 6.83862 82.296 7.26158 82.6195C7.68454 82.918 8.2941 83.1668 9.09026 83.3659L11.2921 83.8883C12.5113 84.1869 13.5065 84.6596 14.2777 85.3065C15.049 85.9285 15.6213 86.6376 15.9945 87.4337C16.3677 88.205 16.5543 88.9887 16.5543 89.7849C16.5543 90.9045 16.2308 91.8873 15.5839 92.7332C14.9619 93.5791 14.1036 94.2384 13.0089 94.7111C11.9141 95.159 10.6701 95.3829 9.27686 95.3829ZM31.6248 94.9351L31.4009 91.5016V76.2751H35.5434V94.9351H31.6248ZM18.7121 85.829V76.2751H22.892V85.829H18.7121ZM22.892 85.829C22.892 87.2969 23.0661 88.4414 23.4144 89.2624C23.7628 90.0835 24.2355 90.6557 24.8326 90.9791C25.4546 91.3026 26.1637 91.4643 26.9598 91.4643C28.378 91.4892 29.4727 91.0289 30.244 90.0835C31.0153 89.138 31.4009 87.7821 31.4009 86.0156H32.9684C32.9684 87.9811 32.6698 89.6729 32.0727 91.0911C31.5004 92.4844 30.6794 93.5542 29.6096 94.3006C28.5646 95.0221 27.2957 95.3829 25.8029 95.3829C24.335 95.3829 23.0661 95.0843 21.9963 94.4872C20.9513 93.8901 20.1427 92.9571 19.5705 91.6882C18.9982 90.4193 18.7121 88.7897 18.7121 86.7993V85.829H22.892Z" fill="#161910"/>
<path d="M39.7029 94.9351V76.2751H43.8454V94.9351H39.7029ZM41.7928 72.7297C41.121 72.7297 40.5363 72.4933 40.0387 72.0206C39.566 71.523 39.3297 70.9383 39.3297 70.2665C39.3297 69.5948 39.566 69.0225 40.0387 68.5498C40.5363 68.0771 41.121 67.8407 41.7928 67.8407C42.4645 67.8407 43.0368 68.0771 43.5095 68.5498C44.0071 69.0225 44.2559 69.5948 44.2559 70.2665C44.2559 70.9383 44.0071 71.523 43.5095 72.0206C43.0368 72.4933 42.4645 72.7297 41.7928 72.7297ZM55.4519 95.3829C53.4864 95.3829 51.9811 94.8977 50.9362 93.9274C49.9161 92.9322 49.4061 91.5141 49.4061 89.6729V70.4531H53.5486V88.8892C53.5486 89.76 53.7476 90.4193 54.1457 90.8672C54.5687 91.315 55.1782 91.5389 55.9744 91.5389C56.2232 91.5389 56.4969 91.4892 56.7954 91.3897C57.094 91.2901 57.4299 91.1035 57.8031 90.8299L59.3332 94.0021C58.6863 94.4499 58.0394 94.7858 57.3925 95.0097C56.7457 95.2585 56.0988 95.3829 55.4519 95.3829ZM46.3085 79.8578V76.2751H58.5868V79.8578H46.3085ZM69.9971 95.3829C68.1808 95.3829 66.5636 94.9724 65.1455 94.1513C63.7522 93.3054 62.645 92.1485 61.824 90.6806C61.0278 89.2127 60.6298 87.5208 60.6298 85.6051C60.6298 83.6893 61.0403 81.9975 61.8613 80.5295C62.6824 79.0616 63.802 77.9171 65.2201 77.0961C66.6632 76.2502 68.3052 75.8272 70.1464 75.8272C71.8133 75.8272 73.3186 76.2626 74.6621 77.1334C76.0056 77.9793 77.063 79.2109 77.8343 80.8281C78.6304 82.4453 79.0285 84.3735 79.0285 86.6127H64.3618L64.9216 86.0902C64.9216 87.2347 65.1704 88.2299 65.668 89.0758C66.1656 89.8969 66.8249 90.5313 67.6459 90.9791C68.467 91.427 69.3751 91.6509 70.3703 91.6509C71.5148 91.6509 72.4602 91.4021 73.2066 90.9045C73.953 90.382 74.5377 89.7103 74.9606 88.8892L78.6553 90.4567C78.1328 91.4519 77.4611 92.3227 76.64 93.0691C75.8439 93.8155 74.886 94.3877 73.7664 94.7858C72.6717 95.1839 71.4152 95.3829 69.9971 95.3829ZM65.1828 83.9257L64.5857 83.4032H75.1099L74.5501 83.9257C74.5501 82.9056 74.3262 82.0721 73.8784 81.4252C73.4305 80.7535 72.8583 80.2559 72.1616 79.9324C71.4899 79.5841 70.7808 79.4099 70.0344 79.4099C69.288 79.4099 68.5416 79.5841 67.7952 79.9324C67.0488 80.2559 66.4268 80.7535 65.9292 81.4252C65.4316 82.0721 65.1828 82.9056 65.1828 83.9257Z" fill="#F8DC3D"/>
<defs>
<filter id="filter0_n_15_54" x="35.1708" y="0.935181" width="173.253" height="233" filterUnits="userSpaceOnUse" color-interpolation-filters="sRGB">
<feFlood flood-opacity="0" result="BackgroundImageFix"/>
<feBlend mode="normal" in="SourceGraphic" in2="BackgroundImageFix" result="shape"/>
<feTurbulence type="fractalNoise" baseFrequency="0.13333334028720856 0.13333334028720856" stitchTiles="stitch" numOctaves="3" result="noise" seed="1921" />
<feColorMatrix in="noise" type="luminanceToAlpha" result="alphaNoise" />
<feComponentTransfer in="alphaNoise" result="coloredNoise1">
<feFuncA type="discrete" tableValues="0 0 0 0 0 0 0 0 0 0 0 0 0 0 0 0 0 0 0 1 1 1 1 1 1 1 1 1 1 1 0 0 0 0 0 0 0 0 0 0 0 0 0 0 0 0 0 0 0 0 0 0 0 0 0 0 0 0 0 0 0 0 0 0 0 0 0 0 0 0 0 0 0 0 0 0 0 0 0 0 0 0 0 0 0 0 0 0 0 0 0 0 0 0 0 0 0 0 0 0 "/>
</feComponentTransfer>
<feComposite operator="in" in2="shape" in="coloredNoise1" result="noise1Clipped" />
<feFlood flood-color="rgba(255, 255, 255, 0.6)" result="color1Flood" />
<feComposite operator="in" in2="noise1Clipped" in="color1Flood" result="color1" />
<feMerge result="effect1_noise_15_54">
<feMergeNode in="shape" />
<feMergeNode in="color1" />
</feMerge>
</filter>
</defs>
</svg>
