<?xml version="1.0" encoding="UTF-8" standalone="no"?>
<!-- Created with Inkscape (http://www.inkscape.org/) -->

<svg
   width="300"
   height="250"
   viewBox="-2 15 105.83333 75"
   version="1.1"
   id="svg1"
   xmlns:xlink="http://www.w3.org/1999/xlink"
   xmlns="http://www.w3.org/2000/svg"
   xmlns:svg="http://www.w3.org/2000/svg">
  <defs
     id="defs1" />
  <g
     id="layer1"
     transform="matrix(2.6249999,0,0,2.6249999,-85.989579,-85.989579)">
    <ellipse
       style="display:inline;fill:#9e9e9e;fill-opacity:1;stroke-width:0.149739"
       id="path1"
       cx="52.916668"
       cy="52.916668"
       rx="16.536459"
       ry="16.166927" />
    <path
       id="ellipse5"
       style="display:inline;opacity:1;fill:none;stroke-width:0.468"
       d="m 60.406229,52.916668 a 7.4895606,7.3221955 0 0 1 -7.489561,7.322195 7.4895606,7.3221955 0 0 1 -7.489561,-7.322195 7.4895606,7.3221955 0 0 1 7.489561,-7.322196 7.4895606,7.3221955 0 0 1 7.489561,7.322196 z" />
    <text
       xml:space="preserve"
       style="font-style:normal;font-variant:normal;font-weight:normal;font-stretch:normal;font-size:5.64444px;font-family:'DM Sans';-inkscape-font-specification:'DM Sans, @opsz=40,wght=600';font-variant-ligatures:normal;font-variant-caps:normal;font-variant-numeric:normal;font-variant-east-asian:normal;font-variation-settings:'opsz' 40, 'wght' 600;text-align:start;writing-mode:lr-tb;direction:ltr;text-anchor:start;display:inline;fill:#161910;fill-opacity:1;stroke-width:0.264583"
       id="text6"
       transform="rotate(55.091347,52.756295,52.854555)"><textPath
         xlink:href="#ellipse5"
         id="textPath6">Design</textPath></text>
    <path
       id="ellipse1"
       style="display:inline;opacity:1;fill:none;stroke-width:0.0678186"
       d="m 60.406229,52.916668 a 7.4895606,7.3221955 0 0 1 -7.489561,7.322195 7.4895606,7.3221955 0 0 1 -7.489561,-7.322195 7.4895606,7.3221955 0 0 1 7.489561,-7.322196 7.4895606,7.3221955 0 0 1 7.489561,7.322196 z" />
    <text
       xml:space="preserve"
       style="font-style:normal;font-variant:normal;font-weight:normal;font-stretch:normal;font-size:5.64444px;font-family:'DM Sans';-inkscape-font-specification:'DM Sans, @opsz=40,wght=600';font-variant-ligatures:normal;font-variant-caps:normal;font-variant-numeric:normal;font-variant-east-asian:normal;font-variation-settings:'opsz' 40, 'wght' 600;text-align:start;writing-mode:lr-tb;direction:ltr;text-anchor:start;display:inline;fill:#161910;fill-opacity:1;stroke-width:0.264583"
       id="text1"
       transform="rotate(-115.31144,53.085695,53.004071)"><textPath
         xlink:href="#ellipse1"
         id="textPath3"
         style="font-size:5.64444px">Brand</textPath></text>
    <path
       style="font-variation-settings:'opsz' 40, 'wght' 600;opacity:1;fill:#000000;fill-opacity:1;stroke:#000000;stroke-width:1.065;stroke-dasharray:none;stroke-opacity:1"
       id="path4"
       d="m 69.887476,59.121276 -0.529688,-0.255916 -0.584056,0.07029 0.255916,-0.529688 -0.07029,-0.584056 0.529688,0.255916 0.584056,-0.07029 -0.255916,0.529688 z"
       transform="rotate(54.85738,65.572911,51.40608)" />
    <path
       style="font-variation-settings:'opsz' 40, 'wght' 600;opacity:1;fill:#000000;fill-opacity:1;stroke:#000000;stroke-width:1.065;stroke-dasharray:none;stroke-opacity:1"
       id="path5"
       d="m 69.887476,59.121276 -0.529688,-0.255916 -0.584056,0.07029 0.255916,-0.529688 -0.07029,-0.584056 0.529688,0.255916 0.584056,-0.07029 -0.255916,0.529688 z"
       transform="rotate(61.665566,66.391501,31.862568)" />
  </g>
</svg>
