<svg width="191" height="163" viewBox="0 0 191 163" fill="none" xmlns="http://www.w3.org/2000/svg">
<g filter="url(#filter0_n_15_55)">
<path d="M190.547 119.935C190.547 124.906 187.547 122.935 185.547 125.435C180.577 125.435 180.547 122.406 180.547 117.435C180.547 112.465 180.577 107.435 185.547 107.435C190.518 107.435 190.547 114.965 190.547 119.935Z" fill="#161910"/>
</g>
<g filter="url(#filter1_n_15_55)">
<path d="M108.258 0.435181C141.783 0.435181 169.04 28.5689 169.727 63.5475C173.44 79.7952 170.959 98.1942 161.489 114.321C143.685 144.638 63.5276 174.478 37.2153 157.491C24.6045 149.349 26.6536 131.928 34.1646 112.655C14.426 107.07 0.0473633 94.6317 0.0473633 70.7028C0.0474684 35.0995 74.3016 0.435481 108.258 0.435181Z" fill="#161910"/>
</g>
<path d="M70.2272 86.4352V65.7972C70.2272 63.8317 70.7124 62.3265 71.6827 61.2815C72.6779 60.2117 74.1707 59.6767 76.1611 59.6767C76.808 59.6767 77.4922 59.7887 78.2137 60.0126C78.9601 60.2117 79.6692 60.4853 80.3409 60.8337L78.8108 63.9312C78.3381 63.7073 77.9151 63.5456 77.5419 63.4461C77.1936 63.3465 76.8826 63.2968 76.6089 63.2968C75.8625 63.2968 75.3027 63.5456 74.9295 64.0432C74.5812 64.5159 74.407 65.2996 74.407 66.3943V86.4352H70.2272ZM67.0177 71.2086V67.7752H79.296V71.2086H67.0177ZM82.1991 86.4352V67.7752H86.3416V86.4352H82.1991ZM84.289 64.2298C83.6172 64.2298 83.0325 63.9934 82.5349 63.5207C82.0622 63.0231 81.8259 62.4384 81.8259 61.7667C81.8259 61.0949 82.0622 60.5227 82.5349 60.0499C83.0325 59.5772 83.6172 59.3409 84.289 59.3409C84.9607 59.3409 85.533 59.5772 86.0057 60.0499C86.5033 60.5227 86.7521 61.0949 86.7521 61.7667C86.7521 62.4384 86.5033 63.0231 86.0057 63.5207C85.533 63.9934 84.9607 64.2298 84.289 64.2298ZM98.5452 94.3843C97.2266 94.3843 96.0323 94.2724 94.9625 94.0485C93.9175 93.8245 93.0343 93.5633 92.3128 93.2647C91.5913 92.9662 91.0315 92.6801 90.6334 92.4064L92.2381 89.0476C92.5865 89.2217 93.0467 89.4332 93.619 89.682C94.2161 89.9557 94.9127 90.1921 95.7089 90.3911C96.5051 90.5901 97.4007 90.6897 98.3959 90.6897C99.4658 90.6897 100.424 90.4657 101.27 90.0179C102.115 89.5949 102.775 88.9356 103.248 88.0399C103.72 87.1443 103.957 85.9998 103.957 84.6065V67.7752H108.136V84.4945C108.136 86.6093 107.738 88.4007 106.942 89.8686C106.146 91.3614 105.026 92.481 103.583 93.2274C102.14 93.9987 100.461 94.3843 98.5452 94.3843ZM97.9108 86.062C96.2189 86.062 94.7386 85.6763 93.4697 84.9051C92.2257 84.1338 91.2429 83.0639 90.5214 81.6955C89.8248 80.3023 89.4765 78.6975 89.4765 76.8813C89.4765 74.9406 89.8248 73.2612 90.5214 71.8431C91.2429 70.4249 92.2257 69.3177 93.4697 68.5216C94.7386 67.7254 96.2189 67.3273 97.9108 67.3273C99.4285 67.3273 100.747 67.7254 101.867 68.5216C103.011 69.3177 103.894 70.4373 104.516 71.8804C105.138 73.2985 105.449 74.9779 105.449 76.9186C105.449 78.7597 105.138 80.3645 104.516 81.7329C103.894 83.1013 103.011 84.1711 101.867 84.9424C100.747 85.6888 99.4285 86.062 97.9108 86.062ZM99.0677 82.5166C100.013 82.5166 100.834 82.2678 101.531 81.7702C102.252 81.2726 102.812 80.6008 103.21 79.7549C103.608 78.8841 103.807 77.8889 103.807 76.7693C103.807 75.6248 103.608 74.6296 103.21 73.7837C102.812 72.9129 102.252 72.2411 101.531 71.7684C100.809 71.2708 99.9758 71.022 99.0304 71.022C98.0352 71.022 97.1519 71.2708 96.3807 71.7684C95.6343 72.2411 95.0371 72.9129 94.5893 73.7837C94.1663 74.6296 93.9549 75.6248 93.9549 76.7693C93.9549 77.8889 94.1663 78.8841 94.5893 79.7549C95.0371 80.6008 95.6467 81.2726 96.418 81.7702C97.1893 82.2678 98.0725 82.5166 99.0677 82.5166ZM112.007 86.4352V67.7752H115.925L116.112 70.2756C116.684 69.3053 117.418 68.5713 118.314 68.0737C119.209 67.5761 120.229 67.3273 121.374 67.3273C122.867 67.3273 124.136 67.6632 125.181 68.335C126.226 69.0067 126.984 70.0268 127.457 71.3952C128.004 70.0766 128.776 69.0689 129.771 68.3723C130.766 67.6757 131.936 67.3273 133.279 67.3273C135.444 67.3273 137.111 68.024 138.28 69.4173C139.449 70.7857 140.022 72.9005 139.997 75.7617V86.4352H135.854V76.8813C135.854 75.3885 135.692 74.244 135.369 73.4478C135.046 72.6268 134.61 72.0545 134.063 71.7311C133.515 71.4077 132.881 71.2459 132.159 71.2459C130.866 71.2211 129.858 71.6813 129.137 72.6268C128.44 73.5722 128.092 74.9282 128.092 76.6947V86.4352H123.912V76.8813C123.912 75.3885 123.75 74.244 123.427 73.4478C123.128 72.6268 122.705 72.0545 122.158 71.7311C121.61 71.4077 120.976 71.2459 120.254 71.2459C118.961 71.2211 117.953 71.6813 117.231 72.6268C116.535 73.5722 116.186 74.9282 116.186 76.6947V86.4352H112.007ZM154.897 86.4352L154.71 82.9271V76.8439C154.71 75.5751 154.574 74.5177 154.3 73.6717C154.051 72.8009 153.628 72.1416 153.031 71.6938C152.459 71.2211 151.687 70.9847 150.717 70.9847C149.821 70.9847 149.038 71.1713 148.366 71.5445C147.694 71.9177 147.122 72.5024 146.649 73.2985L142.992 71.955C143.39 71.134 143.912 70.3751 144.559 69.6785C145.231 68.957 146.065 68.3847 147.06 67.9618C148.08 67.5388 149.299 67.3273 150.717 67.3273C152.533 67.3273 154.051 67.6881 155.27 68.4096C156.489 69.1063 157.385 70.1139 157.957 71.4325C158.554 72.7512 158.853 74.3435 158.853 76.2095L158.741 86.4352H154.897ZM149.523 86.883C147.284 86.883 145.542 86.3854 144.298 85.3902C143.079 84.395 142.469 82.9893 142.469 81.1731C142.469 79.2324 143.116 77.7521 144.41 76.732C145.729 75.7119 147.557 75.2019 149.896 75.2019H154.897V78.4114H151.24C149.573 78.4114 148.403 78.6477 147.732 79.1205C147.06 79.5683 146.724 80.2152 146.724 81.0611C146.724 81.7826 147.01 82.3549 147.582 82.7778C148.179 83.1759 149 83.3749 150.045 83.3749C150.991 83.3749 151.812 83.1635 152.508 82.7405C153.205 82.3175 153.74 81.7577 154.113 81.0611C154.511 80.3645 154.71 79.5807 154.71 78.7099H155.942C155.942 81.2477 155.432 83.2505 154.412 84.7185C153.392 86.1615 151.762 86.883 149.523 86.883Z" fill="#F8DC3D"/>
<defs>
<filter id="filter0_n_15_55" x="180.547" y="107.435" width="10" height="18" filterUnits="userSpaceOnUse" color-interpolation-filters="sRGB">
<feFlood flood-opacity="0" result="BackgroundImageFix"/>
<feBlend mode="normal" in="SourceGraphic" in2="BackgroundImageFix" result="shape"/>
<feTurbulence type="fractalNoise" baseFrequency="0.13333334028720856 0.13333334028720856" stitchTiles="stitch" numOctaves="3" result="noise" seed="5987" />
<feColorMatrix in="noise" type="luminanceToAlpha" result="alphaNoise" />
<feComponentTransfer in="alphaNoise" result="coloredNoise1">
<feFuncA type="discrete" tableValues="0 0 0 0 0 0 0 0 0 0 0 0 0 0 1 1 1 1 1 1 1 1 1 1 1 1 1 1 1 1 1 1 1 1 1 1 1 0 0 0 0 0 0 0 0 0 0 0 0 0 0 0 0 0 0 0 0 0 0 0 0 0 0 0 0 0 0 0 0 0 0 0 0 0 0 0 0 0 0 0 0 0 0 0 0 0 0 0 0 0 0 0 0 0 0 0 0 0 0 0 "/>
</feComponentTransfer>
<feComposite operator="in" in2="shape" in="coloredNoise1" result="noise1Clipped" />
<feFlood flood-color="rgba(255, 255, 255, 0.6)" result="color1Flood" />
<feComposite operator="in" in2="noise1Clipped" in="color1Flood" result="color1" />
<feMerge result="effect1_noise_15_55">
<feMergeNode in="shape" />
<feMergeNode in="color1" />
</feMerge>
</filter>
<filter id="filter1_n_15_55" x="0.0473633" y="0.435181" width="171.328" height="162" filterUnits="userSpaceOnUse" color-interpolation-filters="sRGB">
<feFlood flood-opacity="0" result="BackgroundImageFix"/>
<feBlend mode="normal" in="SourceGraphic" in2="BackgroundImageFix" result="shape"/>
<feTurbulence type="fractalNoise" baseFrequency="0.13333334028720856 0.13333334028720856" stitchTiles="stitch" numOctaves="3" result="noise" seed="1095" />
<feColorMatrix in="noise" type="luminanceToAlpha" result="alphaNoise" />
<feComponentTransfer in="alphaNoise" result="coloredNoise1">
<feFuncA type="discrete" tableValues="0 0 0 0 0 0 0 0 0 0 0 0 0 0 0 0 0 0 0 1 1 1 1 1 1 1 1 1 1 1 0 0 0 0 0 0 0 0 0 0 0 0 0 0 0 0 0 0 0 0 0 0 0 0 0 0 0 0 0 0 0 0 0 0 0 0 0 0 0 0 0 0 0 0 0 0 0 0 0 0 0 0 0 0 0 0 0 0 0 0 0 0 0 0 0 0 0 0 0 0 "/>
</feComponentTransfer>
<feComposite operator="in" in2="shape" in="coloredNoise1" result="noise1Clipped" />
<feFlood flood-color="rgba(255, 255, 255, 0.6)" result="color1Flood" />
<feComposite operator="in" in2="noise1Clipped" in="color1Flood" result="color1" />
<feMerge result="effect1_noise_15_55">
<feMergeNode in="shape" />
<feMergeNode in="color1" />
</feMerge>
</filter>
</defs>
</svg>
