<svg width="200" height="143" viewBox="0 0 200 143" fill="none" xmlns="http://www.w3.org/2000/svg">
<g filter="url(#filter0_n_15_57)">
<circle cx="71.0474" cy="71.4352" r="71" fill="#161910"/>
</g>
<path d="M44.8693 54.3044C44.1726 54.3044 43.5755 54.0556 43.0779 53.558C42.6052 53.0604 42.3688 52.4757 42.3688 51.804C42.3688 51.1073 42.6052 50.5227 43.0779 50.0499C43.5755 49.5523 44.1726 49.3035 44.8693 49.3035C45.541 49.3035 46.1257 49.5523 46.6233 50.0499C47.1209 50.5227 47.3697 51.1073 47.3697 51.804C47.3697 52.4757 47.1209 53.0604 46.6233 53.558C46.1257 54.0556 45.541 54.3044 44.8693 54.3044ZM40.7268 84.459C39.5076 84.459 38.2139 84.0982 36.8455 83.3767L38.5249 79.9059C38.9727 80.1299 39.3832 80.2916 39.7564 80.3911C40.1296 80.5155 40.4406 80.5777 40.6894 80.5777C42.0827 80.5777 42.7794 79.682 42.7794 77.8907V57.7752H46.9219V78.1146C46.9219 80.1547 46.387 81.7222 45.3171 82.8169C44.2722 83.9116 42.742 84.459 40.7268 84.459ZM62.5301 76.4352L62.3435 72.9271V66.8439C62.3435 65.5751 62.2067 64.5177 61.933 63.6717C61.6842 62.8009 61.2612 62.1416 60.6641 61.6938C60.0919 61.2211 59.3206 60.9847 58.3503 60.9847C57.4546 60.9847 56.6709 61.1713 55.9991 61.5445C55.3273 61.9177 54.7551 62.5024 54.2824 63.2985L50.625 61.955C51.0231 61.134 51.5456 60.3751 52.1925 59.6785C52.8642 58.957 53.6977 58.3847 54.6929 57.9618C55.713 57.5388 56.9321 57.3273 58.3503 57.3273C60.1665 57.3273 61.6842 57.6881 62.9033 58.4096C64.1224 59.1063 65.0181 60.1139 65.5903 61.4325C66.1875 62.7512 66.486 64.3435 66.486 66.2095L66.3741 76.4352H62.5301ZM57.156 76.883C54.9168 76.883 53.1752 76.3854 51.9312 75.3902C50.7121 74.395 50.1025 72.9893 50.1025 71.1731C50.1025 69.2324 50.7494 67.7521 52.0432 66.732C53.3618 65.7119 55.1905 65.2019 57.5292 65.2019H62.5301V68.4114H58.8727C57.2058 68.4114 56.0364 68.6477 55.3647 69.1205C54.6929 69.5683 54.357 70.2152 54.357 71.0611C54.357 71.7826 54.6431 72.3549 55.2154 72.7778C55.8125 73.1759 56.6335 73.3749 57.6785 73.3749C58.6239 73.3749 59.445 73.1635 60.1416 72.7405C60.8383 72.3175 61.3732 71.7577 61.7464 71.0611C62.1445 70.3645 62.3435 69.5807 62.3435 68.7099H63.5751C63.5751 71.2477 63.065 73.2505 62.0449 74.7185C61.0249 76.1615 59.3952 76.883 57.156 76.883ZM75.5434 76.4352L82.8208 57.7752H87.1499L79.462 76.4352H75.5434ZM75.2448 76.4352L67.5196 57.7752H71.8114L79.1261 76.4352H75.2448ZM99.888 76.4352L99.7014 72.9271V66.8439C99.7014 65.5751 99.5646 64.5177 99.2909 63.6717C99.0421 62.8009 98.6191 62.1416 98.022 61.6938C97.4498 61.2211 96.6785 60.9847 95.7082 60.9847C94.8125 60.9847 94.0288 61.1713 93.357 61.5445C92.6852 61.9177 92.113 62.5024 91.6403 63.2985L87.9829 61.955C88.381 61.134 88.9035 60.3751 89.5504 59.6785C90.2221 58.957 91.0556 58.3847 92.0508 57.9618C93.0709 57.5388 94.29 57.3273 95.7082 57.3273C97.5244 57.3273 99.0421 57.6881 100.261 58.4096C101.48 59.1063 102.376 60.1139 102.948 61.4325C103.545 62.7512 103.844 64.3435 103.844 66.2095L103.732 76.4352H99.888ZM94.5139 76.883C92.2747 76.883 90.5331 76.3854 89.2891 75.3902C88.07 74.395 87.4604 72.9893 87.4604 71.1731C87.4604 69.2324 88.1073 67.7521 89.4011 66.732C90.7197 65.7119 92.5484 65.2019 94.8871 65.2019H99.888V68.4114H96.2306C94.5637 68.4114 93.3943 68.6477 92.7226 69.1205C92.0508 69.5683 91.7149 70.2152 91.7149 71.0611C91.7149 71.7826 92.001 72.3549 92.5733 72.7778C93.1704 73.1759 93.9914 73.3749 95.0364 73.3749C95.9818 73.3749 96.8029 73.1635 97.4995 72.7405C98.1962 72.3175 98.7311 71.7577 99.1043 71.0611C99.5024 70.3645 99.7014 69.5807 99.7014 68.7099H100.933C100.933 71.2477 100.423 73.2505 99.4028 74.7185C98.3828 76.1615 96.7531 76.883 94.5139 76.883ZM114.122 76.883C112.878 76.883 111.734 76.6964 110.689 76.3232C109.644 75.95 108.748 75.4275 108.002 74.7558C107.255 74.0591 106.683 73.2505 106.285 72.33L109.905 70.7252C110.278 71.4219 110.826 72.0065 111.547 72.4793C112.294 72.952 113.115 73.1883 114.01 73.1883C114.981 73.1883 115.752 73.0266 116.324 72.7032C116.921 72.3549 117.22 71.8821 117.22 71.285C117.22 70.7128 116.996 70.2774 116.548 69.9788C116.1 69.6554 115.466 69.3941 114.645 69.1951L112.891 68.7099C111.124 68.2621 109.743 67.553 108.748 66.5827C107.753 65.5875 107.255 64.4555 107.255 63.1866C107.255 61.3206 107.853 59.8775 109.047 58.8575C110.266 57.8374 112.008 57.3273 114.272 57.3273C115.416 57.3273 116.461 57.5015 117.407 57.8498C118.377 58.1733 119.21 58.646 119.907 59.268C120.604 59.8651 121.089 60.5742 121.362 61.3952L117.892 62.9627C117.643 62.3407 117.17 61.8679 116.474 61.5445C115.777 61.1962 115.006 61.022 114.16 61.022C113.314 61.022 112.654 61.2086 112.182 61.5818C111.709 61.9301 111.473 62.4277 111.473 63.0746C111.473 63.4478 111.684 63.7961 112.107 64.1196C112.53 64.4181 113.14 64.6669 113.936 64.866L116.138 65.3885C117.357 65.687 118.352 66.1597 119.123 66.8066C119.895 67.4286 120.467 68.1377 120.84 68.9339C121.213 69.7051 121.4 70.4889 121.4 71.285C121.4 72.4046 121.076 73.3874 120.429 74.2333C119.807 75.0792 118.949 75.7385 117.854 76.2113C116.76 76.6591 115.516 76.883 114.122 76.883ZM132.701 76.883C130.785 76.883 129.093 76.4725 127.626 75.6515C126.158 74.8055 125.001 73.6486 124.155 72.1807C123.334 70.7128 122.923 69.0209 122.923 67.1052C122.923 65.1894 123.334 63.4976 124.155 62.0297C125.001 60.5617 126.145 59.4173 127.588 58.5962C129.056 57.7503 130.736 57.3273 132.626 57.3273C134.468 57.3273 136.134 57.7752 137.627 58.6709C139.12 59.5417 140.227 60.7981 140.949 62.4402L137.067 63.933C136.669 63.1119 136.06 62.4526 135.239 61.955C134.418 61.4574 133.485 61.2086 132.44 61.2086C131.42 61.2086 130.512 61.4699 129.715 61.9923C128.919 62.4899 128.297 63.1866 127.849 64.0823C127.402 64.9531 127.178 65.9607 127.178 67.1052C127.178 68.2497 127.402 69.2697 127.849 70.1654C128.322 71.0362 128.957 71.7329 129.753 72.2553C130.574 72.7529 131.494 73.0017 132.514 73.0017C133.559 73.0017 134.492 72.7405 135.313 72.218C136.134 71.6707 136.744 70.9367 137.142 70.0161L141.023 71.5089C140.302 73.2008 139.195 74.5194 137.702 75.4649C136.234 76.4103 134.567 76.883 132.701 76.883Z" fill="#F8DC3D"/>
<path d="M146.283 66.5081C146.283 64.4928 146.669 62.8383 147.44 61.5445C148.212 60.2507 149.207 59.2929 150.426 58.6709C151.67 58.024 152.964 57.7005 154.307 57.7005V61.6938C153.163 61.6938 152.081 61.8555 151.06 62.1789C150.065 62.4775 149.257 62.9751 148.635 63.6717C148.013 64.3684 147.702 65.2889 147.702 66.4334L146.283 66.5081ZM143.522 76.4352V57.7752H147.702V76.4352H143.522ZM156.594 76.4352V57.7752H160.737V76.4352H156.594ZM158.684 54.2298C158.012 54.2298 157.428 53.9934 156.93 53.5207C156.457 53.0231 156.221 52.4384 156.221 51.7667C156.221 51.0949 156.457 50.5227 156.93 50.0499C157.428 49.5772 158.012 49.3409 158.684 49.3409C159.356 49.3409 159.928 49.5772 160.401 50.0499C160.899 50.5227 161.147 51.0949 161.147 51.7667C161.147 52.4384 160.899 53.0231 160.401 53.5207C159.928 53.9934 159.356 54.2298 158.684 54.2298ZM165.103 83.8992V57.7752H169.022L169.283 61.2086V83.8992H165.103ZM175.18 76.883C173.612 76.883 172.256 76.4849 171.112 75.6888C169.992 74.8677 169.134 73.7233 168.537 72.2553C167.94 70.7874 167.641 69.0707 167.641 67.1052C167.641 65.1148 167.94 63.3981 168.537 61.955C169.134 60.4871 169.992 59.3551 171.112 58.5589C172.256 57.7379 173.612 57.3273 175.18 57.3273C176.871 57.3273 178.339 57.7379 179.583 58.5589C180.852 59.3551 181.835 60.4871 182.532 61.955C183.253 63.3981 183.614 65.1148 183.614 67.1052C183.614 69.0707 183.253 70.7874 182.532 72.2553C181.835 73.7233 180.852 74.8677 179.583 75.6888C178.339 76.4849 176.871 76.883 175.18 76.883ZM174.135 73.0764C175.13 73.0764 176.013 72.8276 176.784 72.33C177.556 71.8075 178.165 71.0984 178.613 70.2027C179.086 69.3071 179.322 68.2745 179.322 67.1052C179.322 65.9358 179.098 64.9033 178.65 64.0076C178.227 63.1119 177.63 62.4153 176.859 61.9177C176.088 61.4201 175.192 61.1713 174.172 61.1713C173.227 61.1713 172.381 61.4201 171.634 61.9177C170.888 62.4153 170.303 63.1119 169.88 64.0076C169.482 64.9033 169.283 65.9358 169.283 67.1052C169.283 68.2745 169.482 69.3071 169.88 70.2027C170.303 71.0984 170.875 71.8075 171.597 72.33C172.343 72.8276 173.189 73.0764 174.135 73.0764ZM193.865 76.883C191.899 76.883 190.394 76.3979 189.349 75.4275C188.329 74.4323 187.819 73.0142 187.819 71.1731V51.9533H191.962V70.3893C191.962 71.2601 192.161 71.9195 192.559 72.3673C192.982 72.8151 193.591 73.0391 194.387 73.0391C194.636 73.0391 194.91 72.9893 195.209 72.8898C195.507 72.7903 195.843 72.6037 196.216 72.33L197.746 75.5022C197.099 75.95 196.453 76.2859 195.806 76.5098C195.159 76.7586 194.512 76.883 193.865 76.883ZM184.722 61.3579V57.7752H197V61.3579H184.722Z" fill="#161910"/>
<defs>
<filter id="filter0_n_15_57" x="0.0473633" y="0.435181" width="142" height="142" filterUnits="userSpaceOnUse" color-interpolation-filters="sRGB">
<feFlood flood-opacity="0" result="BackgroundImageFix"/>
<feBlend mode="normal" in="SourceGraphic" in2="BackgroundImageFix" result="shape"/>
<feTurbulence type="fractalNoise" baseFrequency="0.13333334028720856 0.13333334028720856" stitchTiles="stitch" numOctaves="3" result="noise" seed="7623" />
<feColorMatrix in="noise" type="luminanceToAlpha" result="alphaNoise" />
<feComponentTransfer in="alphaNoise" result="coloredNoise1">
<feFuncA type="discrete" tableValues="0 0 0 0 0 0 0 0 0 0 0 0 0 0 0 0 0 0 0 1 1 1 1 1 1 1 1 1 1 1 0 0 0 0 0 0 0 0 0 0 0 0 0 0 0 0 0 0 0 0 0 0 0 0 0 0 0 0 0 0 0 0 0 0 0 0 0 0 0 0 0 0 0 0 0 0 0 0 0 0 0 0 0 0 0 0 0 0 0 0 0 0 0 0 0 0 0 0 0 0 "/>
</feComponentTransfer>
<feComposite operator="in" in2="shape" in="coloredNoise1" result="noise1Clipped" />
<feFlood flood-color="rgba(255, 255, 255, 0.6)" result="color1Flood" />
<feComposite operator="in" in2="noise1Clipped" in="color1Flood" result="color1" />
<feMerge result="effect1_noise_15_57">
<feMergeNode in="shape" />
<feMergeNode in="color1" />
</feMerge>
</filter>
</defs>
</svg>
