<svg width="19" height="18" viewBox="0 0 19 18" fill="none" xmlns="http://www.w3.org/2000/svg">
<path d="M0.859063 18V6H4.02706V18H0.859063ZM2.44306 4.056C1.96306 4.056 1.53906 3.88 1.17106 3.528C0.803063 3.16 0.619063 2.728 0.619063 2.232C0.619063 1.736 0.803063 1.312 1.17106 0.959999C1.53906 0.591999 1.96306 0.407999 2.44306 0.407999C2.93906 0.407999 3.36306 0.591999 3.71506 0.959999C4.08306 1.312 4.26706 1.736 4.26706 2.232C4.26706 2.728 4.08306 3.16 3.71506 3.528C3.36306 3.88 2.93906 4.056 2.44306 4.056ZM7.42831 18V6H10.4043L10.5963 8.208V18H7.42831ZM15.3723 18V11.856H18.5403V18H15.3723ZM15.3723 11.856C15.3723 11.04 15.2763 10.408 15.0843 9.96C14.9083 9.512 14.6523 9.192 14.3163 9C13.9803 8.792 13.5883 8.688 13.1403 8.688C12.3243 8.672 11.6923 8.92 11.2443 9.432C10.8123 9.944 10.5963 10.704 10.5963 11.712H9.54031C9.54031 10.432 9.72431 9.352 10.0923 8.472C10.4763 7.576 11.0043 6.896 11.6763 6.432C12.3643 5.952 13.1643 5.712 14.0763 5.712C15.0203 5.712 15.8283 5.904 16.5003 6.288C17.1723 6.672 17.6843 7.272 18.0363 8.088C18.3883 8.888 18.5563 9.928 18.5403 11.208V11.856H15.3723Z" fill="#F4F4F8"/>
</svg>
