<svg width="524" height="588" viewBox="0 0 524 588" fill="none" xmlns="http://www.w3.org/2000/svg">
<g filter="url(#filter0_dn_97_2)">
<path d="M268.023 20.241C299.246 0.0643631 331.532 -9.01856 355.999 11.9529C390.999 41.9528 398.999 74.9529 424.499 93.4529C449.999 111.953 498.498 191.953 489.499 223.953C480.499 255.953 520.499 314.453 512.499 343.453C508.93 356.391 498.295 384.056 483.57 409.802C492.47 433.098 470.428 445.945 466.264 466.448C465.42 470.601 464.027 474.786 461.038 477.79C429.711 509.272 413.244 494.818 408.327 463.724C383.139 460.782 353.245 470.694 318.57 474.778C318.587 476.855 318.36 478.931 317.882 481C317.921 481 317.96 481 317.999 481C345.613 481 364.499 475.5 364.499 522.5C330.999 552 361.499 559 317.999 577.5C296.275 577.5 277.786 565.811 270.888 547.38C204.39 536.896 107.476 539.381 105.977 512.393C104.476 485.393 63.1877 436.393 70.9767 416.893C71.7108 414.447 72.522 412.037 73.4035 409.668C52.3401 396.697 39.6643 380.211 42.4992 357C46.8643 321.265 139.499 287.453 137.999 234.453C136.848 193.783 114.499 159.59 112.974 130.745C111.754 131.272 110.572 131.055 109.247 129.427C106.385 125.907 103.158 122.298 101.357 118.135C97.0768 108.241 106.796 91.0992 115.496 83.9988C121.187 79.3547 130.811 82.333 137.016 86.5242C149.608 77.1379 165.703 69.3183 181.064 63.4246C210.917 51.9703 241.167 37.5958 268.023 20.241Z" fill="#161910"/>
</g>
<g filter="url(#filter1_dn_97_2)">
<path d="M104.5 235C104.5 262.614 94.1142 263 66.5 263C38.8858 263 8 298.5 0 252C0 224.386 25.3858 216 53 216C80.6142 216 104.5 207.386 104.5 235Z" fill="#161910"/>
</g>
<defs>
<filter id="filter0_dn_97_2" x="42.105" y="-0.000274658" width="481.459" height="587.5" filterUnits="userSpaceOnUse" color-interpolation-filters="sRGB">
<feFlood flood-opacity="0" result="BackgroundImageFix"/>
<feColorMatrix in="SourceAlpha" type="matrix" values="0 0 0 0 0 0 0 0 0 0 0 0 0 0 0 0 0 0 127 0" result="hardAlpha"/>
<feOffset dx="6" dy="6"/>
<feGaussianBlur stdDeviation="2"/>
<feComposite in2="hardAlpha" operator="out"/>
<feColorMatrix type="matrix" values="0 0 0 0 0 0 0 0 0 0 0 0 0 0 0 0 0 0 0.25 0"/>
<feBlend mode="normal" in2="BackgroundImageFix" result="effect1_dropShadow_97_2"/>
<feBlend mode="normal" in="SourceGraphic" in2="BackgroundImageFix" result="shape"/>
<feTurbulence type="fractalNoise" baseFrequency="0.12048192322254181 0.12048192322254181" stitchTiles="stitch" numOctaves="3" result="noise" seed="878" />
<feColorMatrix in="noise" type="luminanceToAlpha" result="alphaNoise" />
<feComponentTransfer in="alphaNoise" result="coloredNoise1">
<feFuncA type="discrete" tableValues="0 0 0 0 0 0 0 0 0 0 0 1 1 1 1 1 1 1 1 1 1 1 1 1 1 1 1 1 1 1 1 1 1 1 1 1 1 1 1 0 0 0 0 0 0 0 0 0 0 0 0 0 0 0 0 0 0 0 0 0 0 0 0 0 0 0 0 0 0 0 0 0 0 0 0 0 0 0 0 0 0 0 0 0 0 0 0 0 0 0 0 0 0 0 0 0 0 0 0 0 "/>
</feComponentTransfer>
<feComposite operator="in" in2="shape" in="coloredNoise1" result="noise1Clipped" />
<feFlood flood-color="rgba(217, 217, 217, 0.5)" result="color1Flood" />
<feComposite operator="in" in2="noise1Clipped" in="color1Flood" result="color1" />
<feMerge result="effect2_noise_97_2">
<feMergeNode in="shape" />
<feMergeNode in="color1" />
</feMerge>
<feBlend mode="normal" in="effect2_noise_97_2" in2="effect1_dropShadow_97_2" result="effect2_noise_97_2"/>
</filter>
<filter id="filter1_dn_97_2" x="0" y="214.728" width="114.5" height="70.2334" filterUnits="userSpaceOnUse" color-interpolation-filters="sRGB">
<feFlood flood-opacity="0" result="BackgroundImageFix"/>
<feColorMatrix in="SourceAlpha" type="matrix" values="0 0 0 0 0 0 0 0 0 0 0 0 0 0 0 0 0 0 127 0" result="hardAlpha"/>
<feOffset dx="6" dy="5"/>
<feGaussianBlur stdDeviation="2"/>
<feComposite in2="hardAlpha" operator="out"/>
<feColorMatrix type="matrix" values="0 0 0 0 0 0 0 0 0 0 0 0 0 0 0 0 0 0 0.25 0"/>
<feBlend mode="normal" in2="BackgroundImageFix" result="effect1_dropShadow_97_2"/>
<feBlend mode="normal" in="SourceGraphic" in2="BackgroundImageFix" result="shape"/>
<feTurbulence type="fractalNoise" baseFrequency="0.23255813121795654 0.23255813121795654" stitchTiles="stitch" numOctaves="3" result="noise" seed="5585" />
<feColorMatrix in="noise" type="luminanceToAlpha" result="alphaNoise" />
<feComponentTransfer in="alphaNoise" result="coloredNoise1">
<feFuncA type="discrete" tableValues="0 0 0 0 0 0 0 0 0 0 1 1 1 1 1 1 1 1 1 1 1 1 1 1 1 1 1 1 1 1 1 1 1 1 1 1 1 1 1 0 0 0 0 0 0 0 0 0 0 0 0 0 0 0 0 0 0 0 0 0 0 0 0 0 0 0 0 0 0 0 0 0 0 0 0 0 0 0 0 0 0 0 0 0 0 0 0 0 0 0 0 0 0 0 0 0 0 0 0 0 "/>
</feComponentTransfer>
<feComposite operator="in" in2="shape" in="coloredNoise1" result="noise1Clipped" />
<feFlood flood-color="rgba(217, 217, 217, 0.49)" result="color1Flood" />
<feComposite operator="in" in2="noise1Clipped" in="color1Flood" result="color1" />
<feMerge result="effect2_noise_97_2">
<feMergeNode in="shape" />
<feMergeNode in="color1" />
</feMerge>
<feBlend mode="normal" in="effect2_noise_97_2" in2="effect1_dropShadow_97_2" result="effect2_noise_97_2"/>
</filter>
</defs>
</svg>
