<svg width="304" height="248" viewBox="0 0 304 248" fill="none" xmlns="http://www.w3.org/2000/svg">
<g filter="url(#filter0_n_15_56)">
<path d="M212.047 0.935181C262.305 0.935181 303.047 41.6773 303.047 91.9352C303.047 142.193 262.305 182.935 212.047 182.935C209.69 182.935 207.354 182.845 205.042 182.669C205.045 182.924 205.047 183.179 205.047 183.435C205.047 219.058 176.17 247.935 140.547 247.935C107.661 247.935 80.5243 223.323 76.5493 191.514C33.5952 187.25 0.0473633 151.011 0.0473633 106.935C0.0473633 59.991 38.1032 21.9352 85.0474 21.9352C104.776 21.9352 122.935 28.6573 137.359 39.9352C153.803 16.36 181.124 0.935181 212.047 0.935181Z" fill="#161910"/>
</g>
<path d="M72.6107 116.935V90.8112H76.9398V116.935H72.6107ZM55.1449 116.935V90.8112H59.474V116.935H55.1449ZM58.541 105.515V101.559H74.3647V105.515H58.541ZM82.3885 116.935V90.8112H87.0162L95.2266 102.903L103.362 90.8112H108.027V116.935H103.698V97.6407L95.1893 110.218L86.7176 97.7154V116.935H82.3885ZM118.87 116.935V94.7671H110.846V90.8112H131.223V94.7671H123.199V116.935H118.87ZM134.069 116.935V90.8112H138.399V112.979H150.229V116.935H134.069ZM167.825 117.458C166.307 117.458 164.964 117.159 163.794 116.562C162.625 115.965 161.704 115.144 161.033 114.099C160.361 113.054 160.025 111.86 160.025 110.516C160.025 109.521 160.212 108.613 160.585 107.792C160.983 106.946 161.505 106.175 162.152 105.478C162.799 104.781 163.533 104.159 164.354 103.612L168.646 100.664C169.143 100.315 169.653 99.9421 170.176 99.5441C170.698 99.146 171.146 98.6857 171.519 98.1632C171.918 97.6407 172.117 97.0436 172.117 96.3719C172.117 95.5508 171.818 94.9039 171.221 94.4312C170.649 93.9585 169.915 93.7221 169.019 93.7221C168.223 93.7221 167.539 93.9709 166.966 94.4685C166.419 94.9661 166.145 95.5881 166.145 96.3345C166.145 97.0063 166.357 97.6034 166.78 98.1259C167.203 98.6484 167.7 99.2704 168.273 99.9919L173.087 105.776L182.305 116.935H177.341L169.952 108.09L165.026 102.119C164.379 101.298 163.832 100.577 163.384 99.9546C162.936 99.3077 162.6 98.6981 162.376 98.1259C162.177 97.5288 162.078 96.9192 162.078 96.2972C162.078 95.1527 162.376 94.1327 162.973 93.237C163.595 92.3164 164.416 91.5949 165.436 91.0724C166.456 90.5499 167.601 90.2887 168.87 90.2887C170.263 90.2887 171.495 90.5499 172.564 91.0724C173.659 91.5949 174.518 92.3164 175.14 93.237C175.762 94.1575 176.073 95.2274 176.073 96.4465C176.073 97.4417 175.811 98.3747 175.289 99.2455C174.766 100.116 174.02 100.962 173.05 101.783C172.104 102.604 170.985 103.475 169.691 104.396L167.004 106.224C166.531 106.548 166.096 106.909 165.698 107.307C165.299 107.705 164.976 108.153 164.727 108.65C164.478 109.148 164.354 109.745 164.354 110.442C164.354 111.437 164.69 112.258 165.362 112.905C166.058 113.527 166.954 113.838 168.049 113.838C169.193 113.838 170.288 113.651 171.333 113.278C172.403 112.905 173.348 112.37 174.169 111.673C175.015 110.952 175.674 110.081 176.147 109.061C176.62 108.041 176.856 106.884 176.856 105.59H180.849C180.849 107.879 180.29 109.919 179.17 111.71C178.05 113.502 176.508 114.907 174.542 115.928C172.602 116.948 170.363 117.458 167.825 117.458ZM204.312 117.383C201.8 117.383 199.56 116.811 197.595 115.666C195.654 114.497 194.124 112.905 193.004 110.889C191.91 108.849 191.362 106.51 191.362 103.873C191.362 101.236 191.91 98.9096 193.004 96.8943C194.124 94.8542 195.654 93.2619 197.595 92.1174C199.535 90.948 201.762 90.3633 204.275 90.3633C205.967 90.3633 207.559 90.6743 209.052 91.2963C210.545 91.8935 211.863 92.7269 213.008 93.7968C214.177 94.8666 215.073 96.1106 215.695 97.5288L211.739 99.1335C211.291 98.1881 210.682 97.3546 209.91 96.6331C209.164 95.8867 208.306 95.3145 207.335 94.9164C206.365 94.5183 205.345 94.3193 204.275 94.3193C202.633 94.3193 201.165 94.7298 199.871 95.5508C198.602 96.3719 197.595 97.5039 196.848 98.9469C196.127 100.365 195.766 102.007 195.766 103.873C195.766 105.739 196.127 107.394 196.848 108.837C197.595 110.28 198.615 111.412 199.909 112.233C201.227 113.054 202.72 113.464 204.387 113.464C205.482 113.464 206.502 113.253 207.447 112.83C208.418 112.382 209.276 111.773 210.022 111.001C210.794 110.23 211.403 109.334 211.851 108.314L215.807 109.919C215.185 111.387 214.302 112.693 213.157 113.838C212.013 114.957 210.682 115.828 209.164 116.45C207.646 117.072 206.029 117.383 204.312 117.383ZM227.811 117.383C226.443 117.383 225.186 117.221 224.042 116.898C222.922 116.574 221.927 116.127 221.056 115.554C220.21 114.982 219.501 114.348 218.929 113.651C218.382 112.93 217.996 112.183 217.772 111.412L222.027 110.106C222.35 111.026 222.984 111.835 223.93 112.531C224.875 113.228 226.045 113.589 227.438 113.614C229.055 113.614 230.336 113.278 231.282 112.606C232.227 111.934 232.7 111.051 232.7 109.956C232.7 108.961 232.302 108.153 231.506 107.531C230.71 106.884 229.64 106.386 228.296 106.038L225.087 105.217C223.868 104.893 222.761 104.421 221.765 103.799C220.795 103.177 220.024 102.393 219.451 101.447C218.904 100.502 218.63 99.3823 218.63 98.0886C218.63 95.6503 219.427 93.7595 221.019 92.4159C222.611 91.0475 224.888 90.3633 227.848 90.3633C229.515 90.3633 230.971 90.6246 232.215 91.1471C233.484 91.6447 234.529 92.3413 235.35 93.237C236.171 94.1078 236.78 95.103 237.178 96.2226L232.999 97.5661C232.625 96.5709 231.979 95.7499 231.058 95.103C230.137 94.4561 228.993 94.1327 227.625 94.1327C226.206 94.1327 225.087 94.4685 224.266 95.1403C223.47 95.8121 223.072 96.7451 223.072 97.9393C223.072 98.9096 223.383 99.6685 224.005 100.216C224.651 100.738 225.522 101.136 226.617 101.41L229.826 102.194C232.165 102.766 233.981 103.749 235.275 105.142C236.569 106.535 237.216 108.078 237.216 109.77C237.216 111.263 236.855 112.581 236.134 113.726C235.412 114.87 234.342 115.766 232.924 116.413C231.531 117.06 229.826 117.383 227.811 117.383ZM249.843 117.383C248.475 117.383 247.218 117.221 246.074 116.898C244.954 116.574 243.959 116.127 243.088 115.554C242.242 114.982 241.533 114.348 240.961 113.651C240.414 112.93 240.028 112.183 239.804 111.412L244.058 110.106C244.382 111.026 245.016 111.835 245.962 112.531C246.907 113.228 248.077 113.589 249.47 113.614C251.087 113.614 252.368 113.278 253.314 112.606C254.259 111.934 254.732 111.051 254.732 109.956C254.732 108.961 254.334 108.153 253.538 107.531C252.742 106.884 251.672 106.386 250.328 106.038L247.119 105.217C245.9 104.893 244.792 104.421 243.797 103.799C242.827 103.177 242.056 102.393 241.483 101.447C240.936 100.502 240.662 99.3823 240.662 98.0886C240.662 95.6503 241.459 93.7595 243.051 92.4159C244.643 91.0475 246.92 90.3633 249.88 90.3633C251.547 90.3633 253.003 90.6246 254.247 91.1471C255.516 91.6447 256.561 92.3413 257.382 93.237C258.203 94.1078 258.812 95.103 259.21 96.2226L255.031 97.5661C254.657 96.5709 254.01 95.7499 253.09 95.103C252.169 94.4561 251.025 94.1327 249.656 94.1327C248.238 94.1327 247.119 94.4685 246.298 95.1403C245.502 95.8121 245.103 96.7451 245.103 97.9393C245.103 98.9096 245.414 99.6685 246.036 100.216C246.683 100.738 247.554 101.136 248.649 101.41L251.858 102.194C254.197 102.766 256.013 103.749 257.307 105.142C258.601 106.535 259.248 108.078 259.248 109.77C259.248 111.263 258.887 112.581 258.165 113.726C257.444 114.87 256.374 115.766 254.956 116.413C253.563 117.06 251.858 117.383 249.843 117.383Z" fill="#F8DC3D"/>
<defs>
<filter id="filter0_n_15_56" x="0.0473633" y="0.935181" width="303" height="247" filterUnits="userSpaceOnUse" color-interpolation-filters="sRGB">
<feFlood flood-opacity="0" result="BackgroundImageFix"/>
<feBlend mode="normal" in="SourceGraphic" in2="BackgroundImageFix" result="shape"/>
<feTurbulence type="fractalNoise" baseFrequency="0.13333334028720856 0.13333334028720856" stitchTiles="stitch" numOctaves="3" result="noise" seed="2761" />
<feColorMatrix in="noise" type="luminanceToAlpha" result="alphaNoise" />
<feComponentTransfer in="alphaNoise" result="coloredNoise1">
<feFuncA type="discrete" tableValues="0 0 0 0 0 0 0 0 0 0 0 0 0 0 0 0 0 0 0 1 1 1 1 1 1 1 1 1 1 1 0 0 0 0 0 0 0 0 0 0 0 0 0 0 0 0 0 0 0 0 0 0 0 0 0 0 0 0 0 0 0 0 0 0 0 0 0 0 0 0 0 0 0 0 0 0 0 0 0 0 0 0 0 0 0 0 0 0 0 0 0 0 0 0 0 0 0 0 0 0 "/>
</feComponentTransfer>
<feComposite operator="in" in2="shape" in="coloredNoise1" result="noise1Clipped" />
<feFlood flood-color="rgba(255, 255, 255, 0.6)" result="color1Flood" />
<feComposite operator="in" in2="noise1Clipped" in="color1Flood" result="color1" />
<feMerge result="effect1_noise_15_56">
<feMergeNode in="shape" />
<feMergeNode in="color1" />
</feMerge>
</filter>
</defs>
</svg>
