<svg width="247" height="55" viewBox="0 0 247 55" fill="none" xmlns="http://www.w3.org/2000/svg">
<path d="M236.309 35.1328H228.122V20.789H218.388V14.1328H246.044V20.789H236.309V35.1328Z" fill="black"/>
<path d="M187.256 14.1171H207.491C211.819 14.0702 215.491 17.7109 215.428 22.0546C215.428 23.6327 215.006 25.0702 214.162 26.3515C213.334 27.6171 212.225 28.5859 210.85 29.2265L215.428 35.1171H206.709L202.756 29.9921H195.444V35.1171H187.256V14.1171ZM205.428 20.2577H195.444V23.8359H205.428C205.928 23.8359 206.35 23.664 206.694 23.3202C207.053 22.9609 207.225 22.539 207.225 22.0546C207.225 21.0546 206.428 20.2577 205.428 20.2577Z" fill="black"/>
<path d="M168.891 20.2109L166 26.414H171.766L168.891 20.2109ZM152.75 35.1328L164.016 14.1328H173.75L185.016 35.1328H175.797L174.141 31.539H163.625L161.969 35.1328H152.75Z" fill="black"/>
<path d="M143.994 26.3984H152.384C151.869 33.4921 145.65 35.6171 138.088 35.6171C130.213 35.6015 123.713 33.3203 123.744 25.3671V23.8359C123.713 15.8984 130.213 13.6171 138.088 13.5859C145.65 13.6015 151.869 15.7265 152.384 22.8046H143.994C143.228 20.7421 140.9 20.2578 138.088 20.2578C134.744 20.3046 131.9 20.8984 131.947 24.3515V24.8671C131.9 28.289 134.744 28.914 138.088 28.9609C140.9 28.9609 143.244 28.4609 143.994 26.3984Z" fill="black"/>
<path d="M100.206 23.8515H110.206C110.691 23.8515 111.113 23.6796 111.456 23.3359C111.816 22.9765 111.988 22.5546 111.988 22.0702C111.988 21.5702 111.816 21.1484 111.456 20.8046C111.113 20.4452 110.691 20.2734 110.206 20.2734H100.206V23.8515ZM92.0188 14.1327H112.253C116.581 14.0859 120.253 17.7265 120.191 22.0702C120.253 26.3984 116.581 30.0702 112.253 30.0077H100.206V35.1327H92.0188V14.1327Z" fill="black"/>
<path d="M0 14.1015H8.1875V28.4453H24.5781V35.1015H0V14.1015Z" fill="black"/>
<path d="M39.1822 49.4271C38.9254 51.0638 37.3904 52.1827 35.7536 51.926C34.1168 51.6692 32.998 50.134 33.2547 48.4973L39.1822 49.4271ZM68.6131 1.75163C71.3379 1.61701 73.7408 2.78416 75.5343 5.08727L75.8309 5.49104C77.2429 7.5296 77.5689 9.84212 77.066 12.1023C76.5575 14.3869 75.2325 16.5329 73.5934 18.4394C73.2259 18.8668 72.8331 19.2905 72.4196 19.7119C79.4604 21.0836 85.5416 22.4473 88.9478 23.103C90.5747 23.4162 91.6402 24.9898 91.3269 26.6168C91.0136 28.2434 89.4408 29.308 87.8141 28.9951C83.3618 28.1379 75.237 26.283 66.3485 24.6727C64.2068 26.1202 61.8683 27.4658 59.4467 28.6561C55.4447 30.6232 51.0741 32.2388 46.7894 33.2228C45.6894 35.1465 44.6677 37.0262 43.7498 38.8002C42.4065 41.3966 41.299 43.7386 40.4997 45.6368C39.664 47.6212 39.2673 48.8847 39.1822 49.4271L33.2547 48.4973C33.4643 47.161 34.131 45.3011 34.97 43.3087C35.8455 41.2299 37.0252 38.741 38.4211 36.0432C38.7257 35.4544 39.0409 34.8539 39.3667 34.2446C34.4965 34.4024 29.6699 33.4004 26.3291 30.1319L25.9647 29.7606L25.541 29.3088L25.3297 28.7266C24.3312 25.9646 24.3159 23.1974 25.8698 20.862C27.3205 18.682 29.7438 17.5023 32.1753 16.8323C36.9297 15.5221 43.6585 15.6432 50.5757 16.3204C54.1013 11.5528 57.9126 7.23856 61.6005 4.595C63.7232 3.07337 66.1177 1.87501 68.6131 1.75163ZM46.6207 22.0108C41.2613 21.6502 36.7703 21.7901 33.7689 22.6173C31.9234 23.1259 31.1492 23.7593 30.865 24.1862C30.7093 24.4203 30.4747 24.9234 30.7807 26.0769C32.7622 27.7999 36.178 28.5946 40.9058 28.1352C41.581 28.0695 42.2696 27.9773 42.9691 27.8638C44.1266 25.9157 45.3508 23.9459 46.6207 22.0108ZM53.4123 22.6692C52.7554 23.618 52.1064 24.584 51.4692 25.5597C53.2711 24.8929 55.0642 24.1241 56.8002 23.2708C56.8802 23.2315 56.959 23.1899 57.0386 23.1503C55.8233 22.9768 54.6122 22.8156 53.4123 22.6692ZM68.9093 7.74382C68.0793 7.7849 66.8127 8.24037 65.0961 9.47088C62.754 11.1497 60.1534 13.8451 57.499 17.1571C59.9679 17.5054 62.4571 17.9021 64.9065 18.3249C66.5593 17.0647 67.9659 15.7816 69.0438 14.528C70.3348 13.0264 70.9957 11.7576 71.2091 10.799C71.3712 10.0703 71.2881 9.51775 70.9566 8.99551L70.8004 8.77327C70.0981 7.8715 69.5101 7.71414 68.9093 7.74382Z" fill="#9BBE96"/>
</svg>
