<svg width="248" height="125" viewBox="0 0 248 125" fill="none" xmlns="http://www.w3.org/2000/svg">
<path d="M0.740723 8.09657C0.740723 3.6783 4.32244 0.0965729 8.74072 0.0965729H239.741C244.159 0.0965729 247.741 3.6783 247.741 8.09657V11.6997C247.741 16.118 244.159 19.6997 239.741 19.6997H8.74073C4.32245 19.6997 0.740723 16.118 0.740723 11.6997V8.09657Z" fill="#9E9E9E"/>
<path d="M6.62158 49.9167C6.62158 45.4984 10.2033 41.9167 14.6216 41.9167H116.241C120.659 41.9167 124.241 45.4984 124.241 49.9167V116.903C124.241 121.322 120.659 124.903 116.241 124.903H14.6216C10.2033 124.903 6.62158 121.322 6.62158 116.903V49.9167Z" fill="#9E9E9E"/>
<path d="M156.913 49.9167C156.913 45.4984 160.494 41.9167 164.913 41.9167H239.741C244.159 41.9167 247.741 45.4984 247.741 49.9167V52.213C247.741 56.6312 244.159 60.213 239.741 60.213H164.913C160.494 60.213 156.913 56.6312 156.913 52.213V49.9167Z" fill="#9E9E9E"/>
<path d="M190.238 71.9748C190.238 68.366 193.164 65.4405 196.772 65.4405H241.206C244.815 65.4405 247.741 68.366 247.741 71.9748C247.741 75.5837 244.815 78.5092 241.206 78.5092H196.772C193.164 78.5092 190.238 75.5837 190.238 71.9748Z" fill="#9E9E9E"/>
<path d="M190.238 90.2712C190.238 86.6623 193.164 83.7368 196.772 83.7368H241.206C244.815 83.7368 247.741 86.6623 247.741 90.2712C247.741 93.88 244.815 96.8055 241.206 96.8055H196.772C193.164 96.8055 190.238 93.88 190.238 90.2712Z" fill="#9E9E9E"/>
<path d="M145.151 118.369C145.151 114.76 148.076 111.835 151.685 111.835H241.206C244.815 111.835 247.741 114.76 247.741 118.369C247.741 121.978 244.815 124.903 241.206 124.903H151.685C148.076 124.903 145.151 121.978 145.151 118.369Z" fill="#9E9E9E"/>
</svg>
